<svg width="61" height="60" viewBox="0 0 61 60" fill="none" xmlns="http://www.w3.org/2000/svg">
<path d="M0.00156519 23.6798C0.00156519 23.5232 0.00156519 23.3667 0.00156519 23.2118C0.57599 21.8172 0.954766 21.5714 2.52778 21.5714C4.28549 21.5714 6.0432 21.5714 7.80091 21.5714H8.34716C8.49742 20.2582 8.58194 19.0296 8.78698 17.8212C11.2177 3.46845 27.3642 -4.37473 40.1675 2.55907C40.4586 2.71715 40.8249 2.81106 41.1567 2.81263C44.8286 2.82985 48.5006 2.83767 52.1709 2.81263C53.0803 2.80637 53.722 3.14602 54.2386 3.88479C60.1957 12.4104 61.5276 21.609 58.3034 31.4854C58.1969 31.8109 58.1359 32.1678 58.1359 32.5106C58.1265 40.8671 58.114 49.2252 58.1453 57.5818C58.15 58.7322 57.7837 59.5383 56.7225 60H3.2822C2.22414 59.5383 1.85475 58.7369 1.85945 57.5865C1.89075 49.3786 1.88292 41.1692 1.86258 32.9613C1.86258 32.3744 1.70606 31.778 1.56676 31.2005C1.21146 29.7261 0.784161 28.2673 0.463296 26.7867C0.242605 25.7646 0.150258 24.7159 0 23.6782L0.00156519 23.6798ZM34.8318 7.35325C35.0916 7.46281 35.2841 7.54577 35.4782 7.62403C42.7141 10.4962 46.5488 18.2736 44.4123 25.7568C43.9193 27.4816 43.1226 29.0577 42.0551 30.4977C41.7875 30.8577 41.3946 31.0988 40.9955 30.8718C40.7044 30.7059 40.4367 30.3381 40.3569 30.011C40.299 29.7762 40.5275 29.4303 40.6997 29.1861C42.1428 27.142 42.9567 24.8724 43.1069 22.3806C43.6219 13.8832 36.062 7.11847 27.6835 8.68523C22.4464 9.66504 18.9247 12.8299 17.4331 17.9261C15.9524 22.9879 17.3126 27.4378 21.0596 31.1473C21.2459 31.332 21.4588 31.4916 21.717 31.7107C21.9189 31.0017 22.0942 30.3882 22.268 29.7746C22.6029 28.596 23.2071 28.1327 24.4248 28.1312C28.1343 28.1296 31.8454 28.1296 35.5549 28.1312C36.8117 28.1312 37.4002 28.5835 37.7446 29.8059C38.4896 32.4511 39.2315 35.0963 39.9781 37.7414C40.0344 37.9418 40.108 38.1359 40.1753 38.3409C45.1573 35.5987 50.0986 29.0061 49.6698 20.5447C49.3035 13.337 43.8754 5.3858 38.2141 3.77522C37.6068 5.40928 36.4001 6.50335 34.8333 7.35012L34.8318 7.35325ZM24.1462 30.0203C21.8626 38.1421 19.5884 46.2232 17.3032 54.3465H42.7031C40.4132 46.206 38.1359 38.1108 35.8601 30.0203H24.1478H24.1462ZM2.46831 27.1952C2.48239 27.3454 2.48239 27.444 2.50274 27.5364C4.0601 34.4436 7.66787 40.0219 13.3636 44.2323C14.3184 44.9382 15.3561 45.5298 16.3594 46.1715C16.7648 46.4314 16.9682 46.7851 16.8305 47.2609C16.7115 47.6773 16.4063 47.9402 15.9712 47.9214C15.7145 47.9105 15.4422 47.7962 15.2121 47.6663C11.4603 45.5314 8.28455 42.7422 5.74738 39.2456C5.06809 38.3096 4.4561 37.3251 3.77994 36.3124V58.0999H11.465C11.6826 57.2234 11.8908 56.3719 12.1052 55.5204C12.3525 54.5344 12.5497 54.381 13.553 54.381C14.1368 54.381 14.7222 54.381 15.3107 54.381C15.3639 54.2464 15.4156 54.1431 15.4469 54.0319C16.6943 49.604 17.9371 45.1745 19.1939 40.7497C19.2988 40.3788 19.1736 40.2238 18.8825 40.0063C17.4816 38.9544 16.0119 37.9637 14.7519 36.7601C12.1349 34.2589 10.3647 31.2005 9.35827 27.7179C9.23619 27.2953 9.04837 27.1733 8.63046 27.1905C7.83065 27.2233 7.02927 27.1999 6.22789 27.1999C4.982 27.1999 3.73611 27.1999 2.46831 27.1999V27.1952ZM42.4871 46.638C42.5841 46.6442 42.6264 46.6614 42.6561 46.6474C42.7986 46.5848 42.9379 46.5159 43.0756 46.4439C45.1808 45.3467 47.1029 43.9881 48.8653 42.3994C58.2063 33.9756 60.8139 20.1534 55.173 8.99044C54.9758 8.60071 54.7707 8.42384 54.2949 8.43166C52.1083 8.4661 49.9218 8.44575 47.7352 8.44732C47.5552 8.44732 47.3768 8.4661 47.1357 8.48019C47.2766 8.68209 47.3627 8.81044 47.4519 8.93566C51.0831 14.082 52.365 19.7574 51.0957 25.9289C49.8435 32.0144 46.4736 36.6755 41.2052 39.9562C40.7889 40.216 40.6918 40.4367 40.8546 40.8781C41.0283 41.3523 41.1285 41.8532 41.2663 42.34C41.6732 43.7784 42.0817 45.2152 42.4855 46.6348L42.4871 46.638ZM21.7734 3.74079C14.9507 6.80387 9.41306 14.4342 10.4398 23.7611C10.8906 27.8541 12.4996 31.4572 15.2105 34.5594C16.5331 36.0729 18.0513 37.3517 19.8357 38.4129C20.2395 36.9729 20.5901 35.6362 20.9986 34.3168C21.141 33.8535 21.0643 33.5968 20.6793 33.2885C17.2046 30.4946 15.2982 26.8461 15.029 22.4088C14.6361 15.918 18.5178 9.96868 24.5891 7.60211C24.7629 7.53481 24.9319 7.45186 25.1683 7.34855C23.6031 6.50805 22.3979 5.41241 21.7718 3.74235L21.7734 3.74079ZM56.2185 58.1077V36.1324C54.6283 38.9419 52.761 41.321 50.5369 43.4152C48.3065 45.5157 45.799 47.214 43.0302 48.5851C43.5765 50.5306 44.1133 52.4401 44.6596 54.3778C45.3451 54.3778 46.0072 54.3731 46.6693 54.3778C47.3799 54.3825 47.6475 54.5891 47.8275 55.2763C48.0717 56.2154 48.308 57.156 48.5491 58.1061H56.2185V58.1077ZM46.6051 58.1077C46.4423 57.4534 46.2968 56.8712 46.1481 56.2827H13.8504C13.7001 56.8994 13.5561 57.491 13.4059 58.1077H46.6051ZM36.458 3.00045C32.1428 1.51509 27.8651 1.51822 23.5467 3.00045C23.7972 3.94426 24.3763 4.58286 25.0963 5.1072C26.278 5.96805 27.6287 6.39535 29.0672 6.52057C31.2506 6.71152 33.3026 6.32179 35.09 4.96633C35.7364 4.47643 36.231 3.86287 36.458 3.00045ZM43.4669 4.69869C44.093 5.27468 44.6001 5.78336 45.1542 6.2357C45.3702 6.41257 45.6879 6.55657 45.9618 6.5597C48.3785 6.58474 50.7951 6.57535 53.2118 6.57222C53.3746 6.57222 53.5358 6.55031 53.7893 6.53309C53.3699 5.93362 53.0146 5.40302 52.6311 4.89277C52.5544 4.78947 52.376 4.70808 52.2429 4.70808C49.3614 4.69712 46.4783 4.70025 43.4669 4.70025V4.69869ZM8.51464 23.4841H1.93301C1.99718 24.118 2.05823 24.7065 2.11614 25.2731H8.76037C8.67585 24.6502 8.59603 24.0773 8.5162 23.4841H8.51464Z" fill="#FF731D"/>
<path d="M47.8134 18.7656C47.8087 19.2727 47.3798 19.6953 46.8743 19.6922C46.3656 19.6875 45.9446 19.2602 45.9493 18.7515C45.954 18.2412 46.3781 17.8218 46.8884 17.8265C47.3971 17.8312 47.8181 18.2569 47.815 18.7656H47.8134Z" fill="#FF731D"/>
<path d="M47.811 22.5086C47.811 23.0158 47.3822 23.4415 46.875 23.4399C46.3664 23.4399 45.9438 23.0126 45.9453 22.5039C45.9453 21.9937 46.3695 21.5727 46.8797 21.5742C47.3884 21.5742 47.811 22 47.811 22.5086Z" fill="#FF731D"/>
<path d="M30.0091 38.4424C28.5268 38.4424 27.0446 38.4471 25.5608 38.4424C24.6233 38.4393 24.2711 37.987 24.4589 37.0541C24.7422 35.6407 25.0193 34.2274 25.3088 32.8156C25.4512 32.1222 25.7345 31.8874 26.4326 31.8858C28.8133 31.8812 31.1924 31.8812 33.573 31.8858C34.2711 31.8858 34.5622 32.1253 34.7031 32.8093C35.002 34.2587 35.2932 35.7096 35.5827 37.1621C35.7424 37.9619 35.3495 38.4377 34.5153 38.4424C33.0127 38.4503 31.5117 38.4456 30.0091 38.4456V38.4424ZM33.5402 36.5423C33.368 35.672 33.2209 34.8488 33.0299 34.0364C33.0017 33.9175 32.7669 33.7703 32.6276 33.7688C30.8731 33.75 29.1185 33.7516 27.3639 33.7688C27.234 33.7688 27.0117 33.8971 26.9883 34.002C26.7973 34.8331 26.6439 35.6736 26.4733 36.5439H33.5402V36.5423Z" fill="#FF731D"/>
<path d="M13.1472 17.8259C13.6558 17.8369 14.0722 18.2704 14.0612 18.7775C14.0503 19.2847 13.6152 19.7026 13.108 19.6916C12.5993 19.6806 12.1846 19.2471 12.1955 18.7384C12.2065 18.2282 12.6385 17.8149 13.1472 17.8259Z" fill="#FF731D"/>
<path d="M14.0612 22.5261C14.0503 23.0332 13.6152 23.4511 13.108 23.4401C12.5993 23.4292 12.1846 22.9956 12.1955 22.4869C12.2065 21.9767 12.6385 21.5635 13.1472 21.5744C13.6558 21.5854 14.0722 22.0189 14.0612 22.5261Z" fill="#FF731D"/>
</svg>
