<svg width="22" height="20" viewBox="0 0 22 20" fill="none" xmlns="http://www.w3.org/2000/svg">
<path d="M3.84592 0C3.70311 7.62674e-05 3.56313 0.0399097 3.44168 0.115039C3.32022 0.190168 3.22208 0.297627 3.15824 0.42538L0.0813474 6.57916C0.0151269 6.71147 -0.0115314 6.86007 0.00456787 7.00715C0.0206671 7.15422 0.0788409 7.29354 0.172116 7.40838L10.172 19.716C10.2441 19.8047 10.3351 19.8762 10.4384 19.9254C10.5417 19.9745 10.6546 20 10.7689 20C10.8833 20 10.9962 19.9745 11.0995 19.9254C11.2027 19.8762 11.2937 19.8047 11.3658 19.716L21.3657 7.40838C21.459 7.29354 21.5172 7.15422 21.5333 7.00715C21.5494 6.86007 21.5227 6.71147 21.4565 6.57916L18.3796 0.42538C18.3158 0.297627 18.2176 0.190168 18.0962 0.115039C17.9747 0.0399097 17.8348 7.62674e-05 17.6919 0H3.84592ZM2.01364 6.15378L4.3213 1.53845H7.47589L6.32205 6.15378H2.01364ZM2.38517 7.69223H6.35744L8.83972 15.6368L2.38517 7.69223ZM7.96973 7.69223H13.5689L10.7689 16.6514L7.96896 7.69223H7.96973ZM15.1804 7.69223H19.1535L12.6989 15.6368L15.1804 7.69223ZM19.5242 6.15378H15.2158L14.062 1.53845H17.2166L19.5242 6.15378ZM13.6297 6.15378H7.90819L9.06203 1.53845H12.4758L13.6297 6.15378Z" fill="#FF731D"/>
</svg>
