<svg width="60" height="60" viewBox="0 0 60 60" fill="none" xmlns="http://www.w3.org/2000/svg">
<path d="M25.3077 60C23.9484 59.48 23.3674 58.4764 23.2723 57.0396C23.1678 55.4643 22.9025 53.9008 22.7265 52.3302C22.683 51.9381 22.541 51.6928 22.1489 51.5519C21.5268 51.3277 20.9117 51.0742 20.3166 50.7854C19.9398 50.6023 19.6733 50.6751 19.3646 50.9216C18.0229 51.9945 16.666 53.0474 15.3149 54.1097C13.945 55.1873 12.6949 55.1204 11.4635 53.8914C9.68047 52.1118 7.89977 50.33 6.12024 48.5469C4.86658 47.2909 4.80554 46.0619 5.91482 44.6521C6.9654 43.3175 8.00189 41.9723 9.06656 40.6494C9.33419 40.316 9.38114 40.0366 9.19098 39.6457C8.90222 39.0506 8.71206 38.4073 8.40686 37.8216C8.28596 37.5892 7.9878 37.3368 7.74013 37.3016C6.04042 37.0621 4.33484 36.8626 2.62808 36.6795C0.89433 36.494 0.00221724 35.5326 0.00104341 33.7906C0.00104341 31.2329 -0.00130426 28.6739 0.00104341 26.1161C0.00339107 24.5361 0.867332 23.5443 2.43323 23.3482C4.15641 23.1322 5.8796 22.9221 7.60631 22.7425C8.08054 22.6932 8.33174 22.5066 8.48199 22.0488C8.67684 21.4584 8.93039 20.8832 9.20859 20.3268C9.39523 19.9523 9.32715 19.6847 9.07947 19.3748C8.00776 18.0331 6.95483 16.675 5.89251 15.3239C4.81024 13.947 4.87597 12.7098 6.10263 11.4726C6.50173 11.0699 6.89262 10.6591 7.30816 10.2752C7.72956 9.88554 8.19909 9.88671 8.56181 10.2412C8.90692 10.5781 8.91748 11.0993 8.5489 11.5007C8.15332 11.9315 7.72369 12.333 7.31402 12.7509C6.77289 13.3014 6.75176 13.5655 7.22129 14.1677C8.28948 15.5375 9.3471 16.9168 10.4446 18.2632C11.1665 19.1494 11.3039 20.0533 10.7909 21.0827C10.5127 21.6391 10.285 22.2237 10.0749 22.8106C9.71451 23.8225 9.00552 24.3507 7.95142 24.4704C6.22588 24.6664 4.50269 24.8824 2.77833 25.0808C1.97308 25.1735 1.75827 25.3919 1.75827 26.1959C1.75592 28.735 1.75592 31.274 1.75827 33.8118C1.75827 34.6147 1.97426 34.8318 2.78303 34.9246C4.50856 35.123 6.23058 35.3389 7.95611 35.535C9.01139 35.6547 9.71334 36.1876 10.0772 37.1971C10.3155 37.8568 10.6031 38.4977 10.8848 39.1398C11.2675 40.0096 11.1654 40.8078 10.5785 41.5532C9.49266 42.9336 8.41039 44.3188 7.32576 45.7004C6.72828 46.4622 6.73415 46.6735 7.39971 47.339C9.16633 49.1068 10.933 50.8746 12.7019 52.6412C13.3017 53.2399 13.5483 53.2575 14.2068 52.7434C15.5919 51.6623 16.9805 50.587 18.3516 49.4871C19.1686 48.831 20.0137 48.7159 20.9669 49.1608C21.6547 49.4825 22.3708 49.743 23.0692 50.0412C23.8052 50.3546 24.2818 50.9016 24.3886 51.7022C24.6304 53.5204 24.8523 55.3411 25.0671 57.1628C25.1715 58.0514 25.3617 58.2439 26.2456 58.2439C28.7647 58.2451 31.2837 58.2463 33.8016 58.2439C34.6045 58.2439 34.8216 58.028 34.9155 57.2204C35.1139 55.4948 35.3311 53.7716 35.5259 52.0461C35.6457 50.9908 36.1762 50.2865 37.1881 49.925C37.8114 49.702 38.4253 49.4461 39.0228 49.1632C39.9748 48.7112 40.8246 48.8368 41.6393 49.4871C42.9809 50.56 44.3402 51.6106 45.689 52.6741C46.4449 53.2704 46.6668 53.2657 47.33 52.6037C49.0849 50.8511 50.8374 49.0974 52.5899 47.3414C53.2426 46.6864 53.2567 46.461 52.6968 45.7473C51.6368 44.3951 50.5909 43.0322 49.511 41.6964C48.8231 40.8454 48.6881 39.9721 49.1753 38.9802C49.4582 38.4038 49.6976 37.8028 49.9124 37.1983C50.2728 36.1864 50.9783 35.657 52.0336 35.5373C53.7591 35.3413 55.4823 35.1253 57.2066 34.9269C58.0131 34.8342 58.229 34.6147 58.2302 33.813C58.2326 31.274 58.2326 28.7349 58.2302 26.1971C58.2302 25.3942 58.0142 25.1759 57.2066 25.0832C55.4811 24.8848 53.7591 24.6688 52.0336 24.4728C50.9795 24.353 50.2752 23.8213 49.9113 22.8106C49.6741 22.1509 49.3854 21.51 49.1025 20.8679C48.7198 19.9981 48.8196 19.2022 49.4077 18.4557C50.4958 17.0764 51.5758 15.6913 52.6604 14.3085C53.2684 13.5338 53.2579 13.339 52.5465 12.6264C50.8081 10.8856 49.0684 9.14602 47.3277 7.4064C46.6633 6.74318 46.4473 6.73731 45.6878 7.3348C44.3532 8.38538 43.0056 9.41835 41.6839 10.4854C40.834 11.1721 39.9607 11.3035 38.9676 10.8223C38.3197 10.5077 37.6388 10.2623 36.9721 9.98883C36.1868 9.66603 35.695 9.09789 35.5846 8.24921C35.3499 6.42977 35.1304 4.60916 34.9144 2.78737C34.8193 1.98094 34.6033 1.76496 33.8004 1.76496C31.2626 1.76261 28.7236 1.76261 26.1857 1.76496C25.3817 1.76496 25.1645 1.97977 25.0718 2.78737C24.8734 4.5129 24.6574 6.23609 24.4614 7.96162C24.3416 9.01573 23.8123 9.7212 22.8016 10.0851C22.1419 10.3222 21.501 10.611 20.8589 10.8927C19.9891 11.2754 19.192 11.1756 18.4455 10.5887C17.0651 9.50169 15.6799 8.42059 14.2995 7.3348C13.5259 6.72675 13.3311 6.73731 12.6186 7.44748C12.2594 7.8055 11.9084 8.17409 11.5387 8.52037C11.1102 8.92064 10.5867 8.93004 10.2357 8.56967C9.86829 8.19287 9.88589 7.72099 10.312 7.27258C10.7146 6.84766 11.1349 6.43916 11.5527 6.02832C12.6808 4.91787 13.9685 4.8451 15.228 5.82759C16.5979 6.89696 17.9689 7.9628 19.3223 9.05211C19.6686 9.33149 19.9586 9.40309 20.3741 9.1918C20.9458 8.90186 21.5491 8.6671 22.1525 8.44876C22.514 8.31847 22.6783 8.10366 22.7206 7.72803C22.9131 6.0025 23.1291 4.27931 23.3251 2.55377C23.5129 0.888104 24.4907 0.00303372 26.1693 0.00185989C28.747 0.000686057 31.3236 -0.00166161 33.9013 0.00185989C35.4449 0.00420756 36.4415 0.863453 36.6399 2.4C36.8629 4.12201 37.0719 5.84637 37.2479 7.57426C37.2984 8.07314 37.4886 8.33725 37.9675 8.49337C38.5579 8.68588 39.1296 8.94764 39.6907 9.2188C40.0393 9.38666 40.2964 9.34205 40.5934 9.10494C41.9503 8.02031 43.3225 6.95447 44.6877 5.88042C46.0306 4.82397 47.2971 4.88501 48.4968 6.08114C50.308 7.88767 52.1169 9.69655 53.9222 11.5089C55.0926 12.684 55.1618 13.9599 54.1335 15.2746C53.0747 16.628 52.0218 17.985 50.9454 19.3232C50.6684 19.6683 50.5886 19.9547 50.8022 20.3737C51.0933 20.9442 51.3222 21.5499 51.5417 22.1544C51.672 22.5136 51.8833 22.6838 52.2613 22.7261C53.9868 22.9186 55.7076 23.1557 57.4355 23.3236C58.7314 23.4492 59.5226 24.1558 59.9874 25.3132V34.6875C59.5214 35.8437 58.7326 36.5515 57.4379 36.6771C55.7112 36.845 53.9915 37.0809 52.2671 37.2734C51.8915 37.3157 51.6755 37.4788 51.5441 37.838C51.3163 38.459 51.0687 39.0764 50.7799 39.6704C50.5991 40.0437 50.6543 40.3101 50.9031 40.6224C51.9749 41.9629 53.0278 43.3187 54.0889 44.6686C55.1829 46.0607 55.1102 47.3026 53.8518 48.5633C52.0875 50.3311 50.3221 52.0978 48.5543 53.862C47.2936 55.1204 46.0482 55.192 44.6607 54.098C43.3131 53.0356 41.955 51.9851 40.6157 50.9122C40.3011 50.661 40.0405 50.614 39.6672 50.7971C39.0744 51.0883 38.4535 51.3277 37.8325 51.5531C37.4733 51.6834 37.3102 51.9006 37.2667 52.2762C37.086 53.8644 36.8218 55.4467 36.715 57.0396C36.6188 58.474 36.0377 59.4776 34.6808 59.9977H25.3077V60Z" fill="#FF731D"/>
<path d="M29.9341 27.9658C30.6725 27.2568 31.3721 26.6053 32.04 25.9245C32.1656 25.7954 32.2137 25.5442 32.2161 25.3482C32.2302 23.8644 32.2337 22.3795 32.2196 20.8958C32.2137 20.2349 32.4262 19.6973 33.0131 19.3733C33.62 19.0388 34.1998 19.1609 34.775 19.5271C40.2815 23.0463 40.1007 31.2232 34.4229 34.5205C34.0026 34.7647 33.877 35.017 33.8817 35.476C33.9017 37.8589 33.8911 40.2406 33.8911 42.6235V43.343C34.3372 43.1916 34.7058 43.0836 35.0614 42.9416C43.4496 39.6079 46.5145 29.5 41.4072 22.0509C41.2464 21.8173 41.0233 21.4956 41.0773 21.2761C41.1548 20.9651 41.4072 20.6129 41.6854 20.4568C42.0692 20.2408 42.4343 20.4838 42.6867 20.8301C43.7173 22.2469 44.4897 23.794 44.9921 25.4714C47.6895 34.4829 41.9284 43.8102 32.6609 45.4407C24.045 46.9561 15.7566 40.9367 14.5147 32.2644C13.261 23.5052 19.3696 15.5079 28.1898 14.4526C32.3194 13.9585 36.085 15.0067 39.4281 17.5023C40.0725 17.9835 40.1195 18.6761 39.549 19.0517C39.0889 19.3546 38.7062 19.1609 38.3223 18.8721C36.6273 17.5962 34.7328 16.7745 32.6539 16.3484C25.0639 14.7954 17.4046 20.1504 16.2789 27.8085C15.2847 34.5792 19.0269 40.8451 25.429 43.1247C25.625 43.1951 25.8292 43.2432 26.1098 43.3266C26.1098 42.8301 26.1016 42.4075 26.1121 41.9837C26.1274 41.3569 26.4267 41.013 26.9526 41.0001C27.4973 40.9871 27.8435 41.3487 27.8623 41.9896C27.8787 42.5519 27.8658 43.1165 27.8658 43.7386C28.2872 43.782 28.6629 43.8196 29.1207 43.8666C29.1207 43.2749 29.1207 42.7538 29.1207 42.2338C29.1207 41.2383 29.1171 40.2418 29.1218 39.2463C29.1265 38.4387 29.42 38.0608 30.0175 38.0713C30.5927 38.0819 30.8744 38.4481 30.8779 39.2229C30.8838 40.5317 30.8802 41.8393 30.8802 43.1482C30.8802 43.3583 30.8802 43.5684 30.8802 43.8619C31.3228 43.8231 31.6996 43.7891 32.1034 43.7539V35.6274H27.8647C27.8647 36.2542 27.914 36.9762 27.8412 37.6863C27.8107 37.9868 27.5841 38.3578 27.3317 38.5162C27.1322 38.6418 26.6897 38.5867 26.4842 38.4352C26.2765 38.2826 26.1462 37.9199 26.1262 37.6382C26.0769 36.9186 26.0863 36.1932 26.118 35.4725C26.138 35.017 26.0065 34.7576 25.5816 34.5123C19.8803 31.2255 19.7253 22.9383 25.2846 19.4943C26.2976 18.8663 27.4433 19.2536 27.7238 20.33C27.7766 20.5343 27.7743 20.755 27.7743 20.9686C27.7778 22.4335 27.7684 23.8985 27.786 25.3622C27.7884 25.5747 27.8564 25.8376 27.9938 25.9867C28.6018 26.6452 29.2463 27.2709 29.9377 27.9693L29.9341 27.9658ZM26.0159 21.1811C23.5168 22.6343 22.3453 26.171 23.309 29.1314C24.3197 32.235 27.4843 34.3116 30.6502 33.9465C34.0731 33.5533 36.6954 30.9497 37.0135 27.6324C37.26 25.0582 35.7247 21.8044 33.9803 21.255C33.9803 22.7446 34.0238 24.2283 33.9545 25.7062C33.9334 26.1663 33.7045 26.7016 33.3969 27.0467C32.6844 27.8449 31.8733 28.5562 31.0868 29.2875C30.3191 30.0012 29.5104 29.9872 28.758 29.2535C28.0595 28.5727 27.3881 27.8637 26.6814 27.1899C26.2131 26.7427 25.9959 26.2332 26.0077 25.5794C26.0335 24.1391 26.0159 22.6988 26.0159 21.1799V21.1811Z" fill="#FF731D"/>
</svg>
