<svg width="68" height="98" viewBox="0 0 68 98" fill="none" xmlns="http://www.w3.org/2000/svg">
<path fill-rule="evenodd" clip-rule="evenodd" d="M0 7.3373V80.7102C0 82.6562 0.767599 84.5225 2.13394 85.8985C3.50027 87.2745 5.35342 88.0475 7.28571 88.0475H38.8571V79.4018C37.0052 78.325 35.5578 76.6628 34.7395 74.6732C33.9211 72.6835 33.7775 70.4775 34.331 68.3973C34.8845 66.3171 36.1041 64.479 37.8006 63.168C39.4972 61.8569 41.5758 61.1463 43.7143 61.1463C45.8527 61.1463 47.9314 61.8569 49.628 63.168C51.3245 64.479 52.5441 66.3171 53.0976 68.3973C53.651 70.4775 53.5075 72.6835 52.6891 74.6732C51.8708 76.6628 50.4234 78.325 48.5714 79.4018V88.0475H60.7143C62.6466 88.0475 64.4997 87.2745 65.8661 85.8985C67.2324 84.5225 68 82.6562 68 80.7102V7.3373C68 5.39132 67.2324 3.52505 65.8661 2.14904C64.4997 0.773034 62.6466 0 60.7143 0H7.28571C5.35342 0 3.50027 0.773034 2.13394 2.14904C0.767599 3.52505 0 5.39132 0 7.3373ZM43.7143 75.8187C45.0025 75.8187 46.2379 75.3034 47.1488 74.386C48.0597 73.4687 48.5714 72.2245 48.5714 70.9272C48.5714 69.6299 48.0597 68.3857 47.1488 67.4684C46.2379 66.551 45.0025 66.0357 43.7143 66.0357C42.4261 66.0357 41.1907 66.551 40.2798 67.4684C39.3689 68.3857 38.8571 69.6299 38.8571 70.9272C38.8571 72.2245 39.3689 73.4687 40.2798 74.386C41.1907 75.3034 42.4261 75.8187 43.7143 75.8187ZM19.4286 17.1204C19.4286 16.4717 19.6844 15.8496 20.1399 15.3909C20.5953 14.9323 21.213 14.6746 21.8571 14.6746H46.1429C46.787 14.6746 47.4047 14.9323 47.8601 15.3909C48.3156 15.8496 48.5714 16.4717 48.5714 17.1204C48.5714 17.769 48.3156 18.3911 47.8601 18.8498C47.4047 19.3084 46.787 19.5661 46.1429 19.5661H21.8571C21.213 19.5661 20.5953 19.3084 20.1399 18.8498C19.6844 18.3911 19.4286 17.769 19.4286 17.1204ZM12.1429 29.3492C11.4988 29.3492 10.881 29.6069 10.4256 30.0655C9.97015 30.5242 9.71429 31.1463 9.71429 31.7949C9.71429 32.4436 9.97015 33.0657 10.4256 33.5244C10.881 33.983 11.4988 34.2407 12.1429 34.2407H55.8571C56.5012 34.2407 57.119 33.983 57.5744 33.5244C58.0299 33.0657 58.2857 32.4436 58.2857 31.7949C58.2857 31.1463 58.0299 30.5242 57.5744 30.0655C57.119 29.6069 56.5012 29.3492 55.8571 29.3492H12.1429ZM9.71429 41.578C9.71429 40.9293 9.97015 40.3073 10.4256 39.8486C10.881 39.3899 11.4988 39.1322 12.1429 39.1322H55.8571C56.5012 39.1322 57.119 39.3899 57.5744 39.8486C58.0299 40.3073 58.2857 40.9293 58.2857 41.578C58.2857 42.2267 58.0299 42.8488 57.5744 43.3074C57.119 43.7661 56.5012 44.0238 55.8571 44.0238H12.1429C11.4988 44.0238 10.881 43.7661 10.4256 43.3074C9.97015 42.8488 9.71429 42.2267 9.71429 41.578ZM12.1429 48.9153C11.4988 48.9153 10.881 49.173 10.4256 49.6316C9.97015 50.0903 9.71429 50.7124 9.71429 51.3611C9.71429 52.0097 9.97015 52.6318 10.4256 53.0905C10.881 53.5492 11.4988 53.8068 12.1429 53.8068H55.8571C56.5012 53.8068 57.119 53.5492 57.5744 53.0905C58.0299 52.6318 58.2857 52.0097 58.2857 51.3611C58.2857 50.7124 58.0299 50.0903 57.5744 49.6316C57.119 49.173 56.5012 48.9153 55.8571 48.9153H12.1429Z" fill="#5F9DF7"/>
<path d="M38.8555 97.8313V88.0482H48.5698V97.8313L43.7126 94.1626L38.8555 97.8313Z" fill="#5F9DF7"/>
</svg>
